<?xml version="1.0" encoding="UTF-8" standalone="no"?>
<svg
   xmlns:dc="http://purl.org/dc/elements/1.1/"
   xmlns:cc="http://creativecommons.org/ns#"
   xmlns:rdf="http://www.w3.org/1999/02/22-rdf-syntax-ns#"
   xmlns:svg="http://www.w3.org/2000/svg"
   xmlns="http://www.w3.org/2000/svg"
   xmlns:sodipodi="http://sodipodi.sourceforge.net/DTD/sodipodi-0.dtd"
   xmlns:inkscape="http://www.inkscape.org/namespaces/inkscape"
   id="Capa_1"
   enable-background="new 0 0 512 512"
   height="512"
   viewBox="0 0 512 512"
   width="512"
   version="1.1"
   sodipodi:docname="fill-color.svg"
   inkscape:version="1.0.2 (e86c870879, 2021-01-15, custom)">
  <metadata
     id="metadata20">
    <rdf:RDF>
      <cc:Work
         rdf:about="">
        <dc:format>image/svg+xml</dc:format>
        <dc:type
           rdf:resource="http://purl.org/dc/dcmitype/StillImage" />
        <dc:title></dc:title>
      </cc:Work>
    </rdf:RDF>
  </metadata>
  <defs
     id="defs18" />
  <sodipodi:namedview
     pagecolor="#ffffff"
     bordercolor="#666666"
     borderopacity="1"
     objecttolerance="10"
     gridtolerance="10"
     guidetolerance="10"
     inkscape:pageopacity="0"
     inkscape:pageshadow="2"
     inkscape:window-width="1366"
     inkscape:window-height="745"
     id="namedview16"
     showgrid="false"
     inkscape:zoom="0.39912863"
     inkscape:cx="139.21403"
     inkscape:cy="308.88154"
     inkscape:window-x="-8"
     inkscape:window-y="-8"
     inkscape:window-maximized="1"
     inkscape:current-layer="g13" />
  <linearGradient
     id="SVGID_1_"
     gradientUnits="userSpaceOnUse"
     x1="256"
     x2="256"
     y1="472.526"
     y2="39.474">
    <stop
       offset="0"
       stop-color="#a93aff"
       id="stop2" />
    <stop
       offset="1"
       stop-color="#ff81ff"
       id="stop4" />
  </linearGradient>
  <g
     id="g13">
    <g
       id="g11"
       style="fill:#000000">
      <g
         id="g9"
         style="fill:#000000">
        <path
           d="M 407,179.126 H 334.209 L 228.952,73.868 c -5.857,-5.858 -15.355,-5.858 -21.213,0 L 154.706,126.901 71.672,43.868 c -5.857,-5.858 -15.355,-5.858 -21.213,0 -5.858,5.858 -5.858,15.355 0,21.213 L 133.492,148.114 4.393,277.213 c -5.858,5.858 -5.858,15.355 0,21.213 l 169.706,169.706 c 2.929,2.929 6.768,4.394 10.606,4.394 3.838,0 7.678,-1.464 10.606,-4.394 L 394.317,269.126 H 407 c 8.271,0 15,6.729 15,15 v 30 c 0,24.813 20.187,45 45,45 24.813,0 45,-20.187 45,-45 v -30 c 0,-57.897 -47.103,-105 -105,-105 z M 184.705,436.312 36.213,287.82 154.705,169.328 l 44.251,44.251 c -7.967,16.723 -5.045,37.381 8.782,51.208 17.586,17.586 46.051,17.589 63.639,0 17.545,-17.545 17.545,-46.094 0,-63.639 -8.5,-8.5 -19.8,-13.18 -31.82,-13.18 -6.83,0 -13.425,1.515 -19.408,4.379 L 175.917,148.116 218.344,105.689 366.837,254.18 Z M 228.952,222.36 c 5.862,-5.861 15.35,-5.863 21.213,0 5.863,5.864 5.863,15.35 0,21.213 -5.863,5.862 -15.35,5.862 -21.213,0 -5.849,-5.848 -5.849,-15.364 0,-21.213 z M 482,314.126 c 0,8.271 -6.729,15 -15,15 -8.271,0 -15,-6.729 -15,-15 v -30 c 0,-24.813 -20.187,-45 -45,-45 h -12.791 l -30,-30 H 407 c 41.355,0 75,33.645 75,75 z"
           fill="url(#SVGID_1_)"
           id="path7"
           style="fill:#000000" />
      </g>
    </g>
  </g>
</svg>
